<svg width="201" height="39" viewBox="0 0 201 39" fill="none" xmlns="http://www.w3.org/2000/svg">
<path d="M9.87618 1.38027V17.0576C9.87618 17.0576 9.62902 17.843 9.00068 17.843C8.37233 17.843 8.17335 17.0576 8.17335 17.0576V9.8441C8.15954 9.48755 8.00818 9.15021 7.75103 8.90283C7.49389 8.65546 7.15094 8.51728 6.79412 8.51728C6.4373 8.51728 6.09435 8.65546 5.8372 8.90283C5.58006 9.15021 5.4287 9.48755 5.41488 9.8441V14.984C5.3709 15.1054 5.11536 15.7466 4.54777 15.7466C3.91942 15.7466 3.72044 14.9611 3.72044 14.9611V13.7566C3.72764 13.571 3.69729 13.3859 3.63121 13.2122C3.56514 13.0386 3.46471 12.8801 3.33592 12.7463C3.20714 12.6124 3.05266 12.5059 2.88174 12.4332C2.71081 12.3604 2.52697 12.3229 2.34121 12.3229C2.15545 12.3229 1.9716 12.3604 1.80068 12.4332C1.62975 12.5059 1.47527 12.6124 1.34649 12.7463C1.21771 12.8801 1.11727 13.0386 1.0512 13.2122C0.985128 13.3859 0.954779 13.571 0.961973 13.7566V25.4146C0.954779 25.6002 0.985128 25.7854 1.0512 25.959C1.11727 26.1326 1.21771 26.2911 1.34649 26.4249C1.47527 26.5588 1.62975 26.6653 1.80068 26.738C1.9716 26.8108 2.15545 26.8483 2.34121 26.8483C2.52697 26.8483 2.71081 26.8108 2.88174 26.738C3.05266 26.6653 3.20714 26.5588 3.33592 26.4249C3.46471 26.2911 3.56514 26.1326 3.63121 25.959C3.69729 25.7854 3.72764 25.6002 3.72044 25.4146V17.7215C3.80079 17.567 3.92168 17.4372 4.07016 17.3462C4.21864 17.2552 4.3891 17.2063 4.56326 17.2048C4.73742 17.2033 4.9087 17.2492 5.05873 17.3377C5.20876 17.4261 5.33188 17.5537 5.41488 17.7069V29.5344C5.40769 29.72 5.43804 29.9052 5.50411 30.0788C5.57018 30.2524 5.67062 30.4109 5.7994 30.5448C5.92819 30.6787 6.08267 30.7852 6.25359 30.8579C6.42451 30.9306 6.60836 30.9681 6.79412 30.9681C6.97988 30.9681 7.16373 30.9306 7.33465 30.8579C7.50557 30.7852 7.66005 30.6787 7.78884 30.5448C7.91762 30.4109 8.01805 30.2524 8.08413 30.0788C8.1502 29.9052 8.18055 29.72 8.17335 29.5344V19.816C8.25449 19.6606 8.37664 19.5304 8.52656 19.4396C8.67647 19.3487 8.84841 19.3007 9.02371 19.3007C9.199 19.3007 9.37094 19.3487 9.52085 19.4396C9.67077 19.5304 9.79293 19.6606 9.87406 19.816V36.8568C9.87406 37.2229 10.0195 37.574 10.2783 37.8328C10.5372 38.0917 10.8883 38.2371 11.2543 38.2371C11.6204 38.2371 11.9715 38.0917 12.2303 37.8328C12.4892 37.574 12.6346 37.2229 12.6346 36.8568V17.2505C12.7157 17.0951 12.8379 16.9649 12.9878 16.8741C13.1377 16.7832 13.3097 16.7352 13.485 16.7352C13.6602 16.7352 13.8322 16.7832 13.9821 16.8741C14.132 16.9649 14.2542 17.0951 14.3353 17.2505V33.692C14.3491 34.0485 14.5005 34.3859 14.7576 34.6333C15.0148 34.8806 15.3577 35.0188 15.7145 35.0188C16.0714 35.0188 16.4143 34.8806 16.6715 34.6333C16.9286 34.3859 17.08 34.0485 17.0938 33.692V19.7134C17.1749 19.558 17.2971 19.4278 17.447 19.3369C17.5969 19.2461 17.7688 19.1981 17.9441 19.1981C18.1194 19.1981 18.2914 19.2461 18.4413 19.3369C18.5912 19.4278 18.7133 19.558 18.7945 19.7134V24.3736C18.8083 24.7301 18.9597 25.0675 19.2168 25.3148C19.4739 25.5622 19.8169 25.7004 20.1737 25.7004C20.5305 25.7004 20.8735 25.5622 21.1306 25.3148C21.3878 25.0675 21.5391 24.7301 21.5529 24.3736V23.745C21.6341 23.5896 21.7562 23.4595 21.9061 23.3686C22.0561 23.2778 22.228 23.2297 22.4033 23.2297C22.5786 23.2297 22.7505 23.2778 22.9004 23.3686C23.0504 23.4595 23.1725 23.5896 23.2537 23.745V28.837C23.2537 29.2031 23.3991 29.5541 23.6579 29.813C23.9168 30.0718 24.2678 30.2173 24.6339 30.2173C25 30.2173 25.3511 30.0718 25.6099 29.813C25.8688 29.5541 26.0142 29.2031 26.0142 28.837V21.0874C26.0953 20.932 26.2175 20.8018 26.3674 20.7109C26.5173 20.6201 26.6893 20.572 26.8646 20.572C27.0399 20.572 27.2118 20.6201 27.3617 20.7109C27.5117 20.8018 27.6338 20.932 27.7149 21.0874V22.9389C27.7288 23.2955 27.8801 23.6328 28.1373 23.8802C28.3944 24.1276 28.7374 24.2657 29.0942 24.2657C29.451 24.2657 29.794 24.1276 30.0511 23.8802C30.3082 23.6328 30.4596 23.2955 30.4734 22.9389V16.5067C30.4596 16.1501 30.3082 15.8128 30.0511 15.5654C29.794 15.318 29.451 15.1799 29.0942 15.1799C28.7374 15.1799 28.3944 15.318 28.1373 15.5654C27.8801 15.8128 27.7288 16.1501 27.7149 16.5067V18.3101C27.7149 18.3101 27.4678 19.0955 26.8394 19.0955C26.2111 19.0955 26.0142 18.3101 26.0142 18.3101V10.8055C26.0142 10.4394 25.8688 10.0883 25.6099 9.82946C25.3511 9.57061 25 9.42519 24.6339 9.42519C24.2678 9.42519 23.9168 9.57061 23.6579 9.82946C23.3991 10.0883 23.2537 10.4394 23.2537 10.8055V20.9931C23.2537 20.9931 23.0065 21.7786 22.3781 21.7786C21.7498 21.7786 21.5508 20.9931 21.5508 20.9931V14.7809C21.5581 14.5953 21.5278 14.41 21.4618 14.2363C21.3958 14.0626 21.2953 13.9041 21.1666 13.7701C21.0378 13.6362 20.8833 13.5296 20.7123 13.4569C20.5413 13.3841 20.3574 13.3466 20.1716 13.3466C19.9858 13.3466 19.8019 13.3841 19.6309 13.4569C19.46 13.5296 19.3055 13.6362 19.1767 13.7701C19.0479 13.9041 18.9475 14.0626 18.8814 14.2363C18.8154 14.41 18.7851 14.5953 18.7924 14.7809V16.955C18.7924 16.955 18.5453 17.7403 17.9168 17.7403C17.2882 17.7403 17.0894 16.9549 17.0894 16.9549V5.40169C17.0966 5.21607 17.0663 5.03091 17.0002 4.8573C16.9341 4.68369 16.8337 4.5252 16.7049 4.39133C16.5761 4.25746 16.4216 4.15096 16.2507 4.07821C16.0798 4.00547 15.896 3.96797 15.7102 3.96797C15.5244 3.96797 15.3406 4.00547 15.1697 4.07821C14.9987 4.15096 14.8443 4.25746 14.7155 4.39133C14.5867 4.5252 14.4863 4.68369 14.4202 4.8573C14.3541 5.03091 14.3238 5.21607 14.331 5.40169V14.4897C14.331 14.4897 14.0838 15.2751 13.4555 15.2751C12.8271 15.2751 12.6302 14.4897 12.6302 14.4897V1.38027C12.6302 1.0142 12.4848 0.663123 12.2259 0.404272C11.9671 0.145421 11.616 0 11.2499 0C10.8839 0 10.5328 0.145421 10.2739 0.404272C10.0151 0.663123 9.86967 1.0142 9.86967 1.38027" fill="#1500FF"/>
<mask id="mask0_1803_3" style="mask-type:luminance" maskUnits="userSpaceOnUse" x="0" y="0" width="31" height="39">
<path d="M9.87618 1.38027V17.0576C9.87618 17.0576 9.62902 17.843 9.00068 17.843C8.37233 17.843 8.17335 17.0576 8.17335 17.0576V9.8441C8.15954 9.48755 8.00818 9.15021 7.75103 8.90283C7.49389 8.65546 7.15094 8.51728 6.79412 8.51728C6.4373 8.51728 6.09435 8.65546 5.8372 8.90283C5.58006 9.15021 5.4287 9.48755 5.41488 9.8441V14.984C5.3709 15.1054 5.11536 15.7466 4.54777 15.7466C3.91942 15.7466 3.72044 14.9611 3.72044 14.9611V13.7566C3.72764 13.571 3.69729 13.3859 3.63121 13.2122C3.56514 13.0386 3.46471 12.8801 3.33592 12.7463C3.20714 12.6124 3.05266 12.5059 2.88174 12.4332C2.71081 12.3604 2.52697 12.3229 2.34121 12.3229C2.15545 12.3229 1.9716 12.3604 1.80068 12.4332C1.62975 12.5059 1.47527 12.6124 1.34649 12.7463C1.21771 12.8801 1.11727 13.0386 1.0512 13.2122C0.985128 13.3859 0.954779 13.571 0.961973 13.7566V25.4146C0.954779 25.6002 0.985128 25.7854 1.0512 25.959C1.11727 26.1326 1.21771 26.2911 1.34649 26.4249C1.47527 26.5588 1.62975 26.6653 1.80068 26.738C1.9716 26.8108 2.15545 26.8483 2.34121 26.8483C2.52697 26.8483 2.71081 26.8108 2.88174 26.738C3.05266 26.6653 3.20714 26.5588 3.33592 26.4249C3.46471 26.2911 3.56514 26.1326 3.63121 25.959C3.69729 25.7854 3.72764 25.6002 3.72044 25.4146V17.7215C3.80079 17.567 3.92168 17.4372 4.07016 17.3462C4.21864 17.2552 4.3891 17.2063 4.56326 17.2048C4.73742 17.2033 4.9087 17.2492 5.05873 17.3377C5.20876 17.4261 5.33188 17.5537 5.41488 17.7069V29.5344C5.40769 29.72 5.43804 29.9052 5.50411 30.0788C5.57018 30.2524 5.67062 30.4109 5.7994 30.5448C5.92819 30.6787 6.08267 30.7852 6.25359 30.8579C6.42451 30.9306 6.60836 30.9681 6.79412 30.9681C6.97988 30.9681 7.16373 30.9306 7.33465 30.8579C7.50557 30.7852 7.66005 30.6787 7.78884 30.5448C7.91762 30.4109 8.01805 30.2524 8.08413 30.0788C8.1502 29.9052 8.18055 29.72 8.17335 29.5344V19.816C8.25449 19.6606 8.37664 19.5304 8.52656 19.4396C8.67647 19.3487 8.84841 19.3007 9.02371 19.3007C9.199 19.3007 9.37094 19.3487 9.52085 19.4396C9.67077 19.5304 9.79293 19.6606 9.87406 19.816V36.8568C9.87406 37.2229 10.0195 37.574 10.2783 37.8328C10.5372 38.0917 10.8883 38.2371 11.2543 38.2371C11.6204 38.2371 11.9715 38.0917 12.2303 37.8328C12.4892 37.574 12.6346 37.2229 12.6346 36.8568V17.2505C12.7157 17.0951 12.8379 16.9649 12.9878 16.8741C13.1377 16.7832 13.3097 16.7352 13.485 16.7352C13.6602 16.7352 13.8322 16.7832 13.9821 16.8741C14.132 16.9649 14.2542 17.0951 14.3353 17.2505V33.692C14.3491 34.0485 14.5005 34.3859 14.7576 34.6333C15.0148 34.8806 15.3577 35.0188 15.7145 35.0188C16.0714 35.0188 16.4143 34.8806 16.6715 34.6333C16.9286 34.3859 17.08 34.0485 17.0938 33.692V19.7134C17.1749 19.558 17.2971 19.4278 17.447 19.3369C17.5969 19.2461 17.7688 19.1981 17.9441 19.1981C18.1194 19.1981 18.2914 19.2461 18.4413 19.3369C18.5912 19.4278 18.7133 19.558 18.7945 19.7134V24.3736C18.8083 24.7301 18.9597 25.0675 19.2168 25.3148C19.4739 25.5622 19.8169 25.7004 20.1737 25.7004C20.5305 25.7004 20.8735 25.5622 21.1306 25.3148C21.3878 25.0675 21.5391 24.7301 21.5529 24.3736V23.745C21.6341 23.5896 21.7562 23.4595 21.9061 23.3686C22.0561 23.2778 22.228 23.2297 22.4033 23.2297C22.5786 23.2297 22.7505 23.2778 22.9004 23.3686C23.0504 23.4595 23.1725 23.5896 23.2537 23.745V28.837C23.2537 29.2031 23.3991 29.5541 23.6579 29.813C23.9168 30.0718 24.2678 30.2173 24.6339 30.2173C25 30.2173 25.3511 30.0718 25.6099 29.813C25.8688 29.5541 26.0142 29.2031 26.0142 28.837V21.0874C26.0953 20.932 26.2175 20.8018 26.3674 20.7109C26.5173 20.6201 26.6893 20.572 26.8646 20.572C27.0399 20.572 27.2118 20.6201 27.3617 20.7109C27.5117 20.8018 27.6338 20.932 27.7149 21.0874V22.9389C27.7288 23.2955 27.8801 23.6328 28.1373 23.8802C28.3944 24.1276 28.7374 24.2657 29.0942 24.2657C29.451 24.2657 29.794 24.1276 30.0511 23.8802C30.3082 23.6328 30.4596 23.2955 30.4734 22.9389V16.5067C30.4596 16.1501 30.3082 15.8128 30.0511 15.5654C29.794 15.318 29.451 15.1799 29.0942 15.1799C28.7374 15.1799 28.3944 15.318 28.1373 15.5654C27.8801 15.8128 27.7288 16.1501 27.7149 16.5067V18.3101C27.7149 18.3101 27.4678 19.0955 26.8394 19.0955C26.2111 19.0955 26.0142 18.3101 26.0142 18.3101V10.8055C26.0142 10.4394 25.8688 10.0883 25.6099 9.82946C25.3511 9.57061 25 9.42519 24.6339 9.42519C24.2678 9.42519 23.9168 9.57061 23.6579 9.82946C23.3991 10.0883 23.2537 10.4394 23.2537 10.8055V20.9931C23.2537 20.9931 23.0065 21.7786 22.3781 21.7786C21.7498 21.7786 21.5508 20.9931 21.5508 20.9931V14.7809C21.5581 14.5953 21.5278 14.41 21.4618 14.2363C21.3958 14.0626 21.2953 13.9041 21.1666 13.7701C21.0378 13.6362 20.8833 13.5296 20.7123 13.4569C20.5413 13.3841 20.3574 13.3466 20.1716 13.3466C19.9858 13.3466 19.8019 13.3841 19.6309 13.4569C19.46 13.5296 19.3055 13.6362 19.1767 13.7701C19.0479 13.9041 18.9475 14.0626 18.8814 14.2363C18.8154 14.41 18.7851 14.5953 18.7924 14.7809V16.955C18.7924 16.955 18.5453 17.7403 17.9168 17.7403C17.2882 17.7403 17.0894 16.9549 17.0894 16.9549V5.40169C17.0966 5.21607 17.0663 5.03091 17.0002 4.8573C16.9341 4.68369 16.8337 4.5252 16.7049 4.39133C16.5761 4.25746 16.4216 4.15096 16.2507 4.07821C16.0798 4.00547 15.896 3.96797 15.7102 3.96797C15.5244 3.96797 15.3406 4.00547 15.1697 4.07821C14.9987 4.15096 14.8443 4.25746 14.7155 4.39133C14.5867 4.5252 14.4863 4.68369 14.4202 4.8573C14.3541 5.03091 14.3238 5.21607 14.331 5.40169V14.4897C14.331 14.4897 14.0838 15.2751 13.4555 15.2751C12.8271 15.2751 12.6302 14.4897 12.6302 14.4897V1.38027C12.6302 1.0142 12.4848 0.663123 12.2259 0.404272C11.9671 0.145421 11.616 0 11.2499 0C10.8839 0 10.5328 0.145421 10.2739 0.404272C10.0151 0.663123 9.86967 1.0142 9.86967 1.38027" fill="white"/>
</mask>
<g mask="url(#mask0_1803_3)">
<path d="M30.4776 0.00195312H0.962021V38.2369H30.4776V0.00195312Z" fill="#1500FF"/>
</g>
<mask id="mask1_1803_3" style="mask-type:luminance" maskUnits="userSpaceOnUse" x="37" y="6" width="164" height="27">
<path d="M63.9769 14.2386V11.7252H61.7316V26.6694H64.0083V19.5251C64.0083 16.3331 65.0285 13.6103 68.4319 13.6103V11.3587C66.1803 11.3587 64.5068 12.7201 63.9832 14.2365M76.6758 13.294C79.1368 13.294 81.3088 14.8899 81.4387 17.9794H71.8564C72.0386 15.1791 74.2127 13.294 76.6737 13.294M69.4247 19.2612C69.4247 23.8691 72.5392 27.0611 77.0926 27.0611C80.4941 27.0611 82.4315 25.2033 83.2692 23.7895L81.778 22.7171C81.0721 23.712 79.6583 25.0462 77.1198 25.0462C74.0325 25.0462 71.7809 23.0312 71.7537 19.6801H83.7405C83.7677 19.3931 83.7677 19.0791 83.7677 18.9994C83.7677 14.5234 81.0721 11.3566 76.6758 11.3566C72.6962 11.3566 69.4267 14.4711 69.4267 19.2612M87.9567 22.0343C87.9567 20.2812 89.4229 18.9722 91.6996 18.9722C93.9763 18.9722 95.4424 20.1765 95.4424 22.0343C95.4424 23.8921 93.9239 25.1488 91.7268 25.1488C89.4229 25.1488 87.9567 23.7623 87.9567 22.0343ZM86.4131 12.9798L87.3284 14.6554C88.6528 13.841 90.1722 13.3982 91.7268 13.3736C93.9512 13.3736 95.3649 14.5779 95.3649 16.6703V18.5029C94.7639 17.8746 93.3228 17.1687 91.4126 17.1687C88.0615 17.1687 85.6821 19.236 85.6821 22.0887C85.6821 24.9938 88.0908 27.061 91.3603 27.061C93.3753 27.061 94.6319 26.3028 95.4173 25.4126L95.6791 26.6693H97.6417V16.8045C97.6417 13.6104 96.0185 11.3588 91.9363 11.3588C89.9809 11.381 88.0696 11.9427 86.4131 12.982M112.297 14.0815C111.616 12.4332 110.02 11.3587 107.796 11.3587C105.701 11.3587 104.132 12.5882 103.556 13.8721V11.7253H101.299V26.6694H103.575V17.6149C103.575 15.0764 105.224 13.4259 107.214 13.4259C109.308 13.4259 110.615 14.8648 110.615 17.2463V26.6715H112.892V17.6923C112.892 14.9171 114.488 13.4258 116.582 13.4258C118.781 13.4258 119.933 14.8647 119.933 17.6651V26.6715H122.21V16.9866C122.21 13.7149 120.43 11.3587 117.106 11.3587C114.959 11.3587 113.181 12.3012 112.289 14.0815M142.753 19.1858C142.753 16.0441 144.716 13.428 147.805 13.428C150.683 13.428 152.934 15.6524 152.934 19.1858C152.934 22.5893 150.788 24.9959 147.857 24.9959C145.057 24.9959 142.753 22.849 142.753 19.1858ZM142.753 14.0815V11.7252H140.554V32.0607H142.83V24.2628C143.404 25.1371 144.19 25.8522 145.114 26.3418C146.038 26.8313 147.071 27.0795 148.117 27.0632C152.356 27.0632 155.261 23.7916 155.261 19.1858C155.261 14.58 152.199 11.3607 147.96 11.3607C146.934 11.3465 145.92 11.588 145.011 12.0633C144.101 12.5387 143.325 13.233 142.751 14.0836M159.507 22.0427C159.507 20.2896 160.973 18.9805 163.249 18.9805C165.526 18.9805 166.992 20.1849 166.992 22.0427C166.992 23.9005 165.474 25.1572 163.277 25.1572C160.973 25.1572 159.507 23.7707 159.507 22.0427ZM157.963 12.9882L158.878 14.6638C160.203 13.8494 161.722 13.4067 163.277 13.3819C165.501 13.3819 166.915 14.5863 166.915 16.6787V18.5114C166.314 17.8831 164.873 17.1772 162.963 17.1772C159.611 17.1772 157.23 19.2445 157.23 22.0972C157.23 25.0022 159.639 27.0695 162.908 27.0695C164.923 27.0695 166.18 26.3113 166.965 25.4211L167.227 26.6776H169.179V16.8045C169.179 13.6104 167.556 11.3588 163.474 11.3588C161.519 11.3814 159.608 11.9431 157.953 12.982M171.858 19.2026C171.858 23.6262 175.077 27.0549 179.526 27.0549C181.487 27.0607 183.37 26.2886 184.762 24.9081L184.081 22.9979C183.48 23.5988 181.987 24.9876 179.633 24.9876C176.543 24.996 174.206 22.4303 174.206 19.2026C174.206 15.9311 176.43 13.4449 179.545 13.4449C180.374 13.4516 181.193 13.6215 181.957 13.9449C182.72 14.2684 183.412 14.739 183.993 15.3299L184.752 13.3925C183.993 12.6343 182.238 11.3503 179.492 11.3503C175.148 11.3503 171.85 14.7518 171.85 19.2026M193.842 13.2878C196.328 13.2878 198.475 14.8836 198.632 17.9731H189.052C189.236 15.1728 191.408 13.2878 193.842 13.2878ZM186.618 19.2549C186.618 23.8628 189.732 27.0548 194.286 27.0548C197.687 27.0548 199.625 25.197 200.462 23.7832L198.971 22.7108C198.265 23.7057 196.851 25.0399 194.313 25.0399C191.198 25.0399 188.974 23.0249 188.947 19.6738H200.934C200.961 19.3869 200.961 19.0729 200.961 18.9931C200.961 14.5172 198.265 11.3503 193.84 11.3503C189.887 11.3503 186.616 14.4648 186.616 19.2549M53.427 8.57304V11.7148H51.6781V13.6522H53.4312V21.5567C53.4312 24.9079 54.713 26.8704 57.6976 26.8704C58.1609 26.8716 58.6239 26.8457 59.0841 26.7929V24.7779C59.0841 24.7779 58.7427 24.8032 58.4558 24.8032C56.4932 24.8032 55.7078 24.1497 55.7078 21.3493V13.6626H58.9794V11.7252H55.7078V8.58349H53.4312L53.427 8.57304ZM38.3257 11.321C38.3257 17.8139 47.7509 16.5028 47.7509 21.5547C47.7509 23.6492 46.2324 24.8786 44.1128 24.8786C41.4695 24.8786 40.24 23.3078 39.7144 21.7369L37.7246 22.5998C38.3529 24.5372 40.106 27.0485 44.008 27.0485C47.7781 27.0485 50.1051 24.5624 50.1051 21.3934C50.1051 14.955 40.6568 15.8975 40.6568 11.3168C40.6568 9.64121 41.8339 8.28164 44.0331 8.28164C46.2323 8.28164 47.3571 9.80014 47.8032 10.8202L49.7658 10.0096C49.2694 8.64839 47.6713 6.16223 44.0876 6.16223C40.504 6.16223 38.3298 8.43896 38.3298 11.3189M125.639 11.3189C125.639 17.8118 135.064 16.5006 135.064 21.5526C135.064 23.647 133.546 24.8765 131.426 24.8765C128.783 24.8765 127.578 23.3056 127.027 21.7348L125.038 22.5977C125.666 24.5351 127.419 27.0464 131.344 27.0464C135.114 27.0464 137.441 24.5603 137.441 21.3913C137.441 14.9529 127.968 15.8954 127.968 11.3147C127.968 9.63909 129.145 8.27952 131.369 8.27952C133.594 8.27952 134.666 9.79802 135.139 10.8181L137.077 10.0075C136.606 8.64632 134.982 6.16016 131.397 6.16016C127.811 6.16016 125.639 8.43689 125.639 11.3168" fill="white"/>
</mask>
<g mask="url(#mask1_1803_3)">
<path d="M200.959 6.17871H37.7267V32.0624H200.959V6.17871Z" fill="#1500FF"/>
</g>
</svg>
