<svg width="31" height="39" viewBox="0 0 31 39" fill="none" xmlns="http://www.w3.org/2000/svg">
<mask id="mask0_1803_41" style="mask-type:luminance" maskUnits="userSpaceOnUse" x="0" y="0" width="31" height="39">
<path d="M9.87618 1.38027V17.0576C9.87618 17.0576 9.62902 17.843 9.00068 17.843C8.37233 17.843 8.17335 17.0576 8.17335 17.0576V9.8441C8.15954 9.48755 8.00818 9.15021 7.75103 8.90283C7.49389 8.65546 7.15094 8.51728 6.79412 8.51728C6.4373 8.51728 6.09435 8.65546 5.8372 8.90283C5.58006 9.15021 5.4287 9.48755 5.41488 9.8441V14.984C5.3709 15.1054 5.11536 15.7466 4.54777 15.7466C3.91942 15.7466 3.72044 14.9611 3.72044 14.9611V13.7566C3.72764 13.571 3.69729 13.3859 3.63121 13.2122C3.56514 13.0386 3.46471 12.8801 3.33592 12.7463C3.20714 12.6124 3.05266 12.5059 2.88174 12.4332C2.71081 12.3604 2.52697 12.3229 2.34121 12.3229C2.15545 12.3229 1.9716 12.3604 1.80068 12.4332C1.62975 12.5059 1.47527 12.6124 1.34649 12.7463C1.21771 12.8801 1.11727 13.0386 1.0512 13.2122C0.985128 13.3859 0.954779 13.571 0.961973 13.7566V25.4146C0.954779 25.6002 0.985128 25.7854 1.0512 25.959C1.11727 26.1326 1.21771 26.2911 1.34649 26.4249C1.47527 26.5588 1.62975 26.6653 1.80068 26.738C1.9716 26.8108 2.15545 26.8483 2.34121 26.8483C2.52697 26.8483 2.71081 26.8108 2.88174 26.738C3.05266 26.6653 3.20714 26.5588 3.33592 26.4249C3.46471 26.2911 3.56514 26.1326 3.63121 25.959C3.69729 25.7854 3.72764 25.6002 3.72044 25.4146V17.7215C3.80079 17.567 3.92168 17.4372 4.07016 17.3462C4.21864 17.2552 4.3891 17.2063 4.56326 17.2048C4.73742 17.2033 4.9087 17.2492 5.05873 17.3377C5.20876 17.4261 5.33188 17.5537 5.41488 17.7069V29.5344C5.40769 29.72 5.43804 29.9052 5.50411 30.0788C5.57018 30.2524 5.67062 30.4109 5.7994 30.5448C5.92819 30.6787 6.08267 30.7852 6.25359 30.8579C6.42451 30.9306 6.60836 30.9681 6.79412 30.9681C6.97988 30.9681 7.16373 30.9306 7.33465 30.8579C7.50557 30.7852 7.66005 30.6787 7.78884 30.5448C7.91762 30.4109 8.01805 30.2524 8.08413 30.0788C8.1502 29.9052 8.18055 29.72 8.17335 29.5344V19.816C8.25449 19.6606 8.37664 19.5304 8.52656 19.4396C8.67647 19.3487 8.84841 19.3007 9.02371 19.3007C9.199 19.3007 9.37094 19.3487 9.52085 19.4396C9.67077 19.5304 9.79293 19.6606 9.87406 19.816V36.8568C9.87406 37.2229 10.0195 37.574 10.2783 37.8328C10.5372 38.0917 10.8883 38.2371 11.2543 38.2371C11.6204 38.2371 11.9715 38.0917 12.2303 37.8328C12.4892 37.574 12.6346 37.2229 12.6346 36.8568V17.2505C12.7157 17.0951 12.8379 16.9649 12.9878 16.8741C13.1377 16.7832 13.3097 16.7352 13.485 16.7352C13.6602 16.7352 13.8322 16.7832 13.9821 16.8741C14.132 16.9649 14.2542 17.0951 14.3353 17.2505V33.692C14.3491 34.0485 14.5005 34.3859 14.7576 34.6333C15.0148 34.8806 15.3577 35.0188 15.7145 35.0188C16.0714 35.0188 16.4143 34.8806 16.6715 34.6333C16.9286 34.3859 17.08 34.0485 17.0938 33.692V19.7134C17.1749 19.558 17.2971 19.4278 17.447 19.3369C17.5969 19.2461 17.7688 19.1981 17.9441 19.1981C18.1194 19.1981 18.2914 19.2461 18.4413 19.3369C18.5912 19.4278 18.7133 19.558 18.7945 19.7134V24.3736C18.8083 24.7301 18.9597 25.0675 19.2168 25.3148C19.4739 25.5622 19.8169 25.7004 20.1737 25.7004C20.5305 25.7004 20.8735 25.5622 21.1306 25.3148C21.3878 25.0675 21.5391 24.7301 21.5529 24.3736V23.745C21.6341 23.5896 21.7562 23.4595 21.9061 23.3686C22.0561 23.2778 22.228 23.2297 22.4033 23.2297C22.5786 23.2297 22.7505 23.2778 22.9004 23.3686C23.0504 23.4595 23.1725 23.5896 23.2537 23.745V28.837C23.2537 29.2031 23.3991 29.5541 23.6579 29.813C23.9168 30.0718 24.2678 30.2173 24.6339 30.2173C25 30.2173 25.3511 30.0718 25.6099 29.813C25.8688 29.5541 26.0142 29.2031 26.0142 28.837V21.0874C26.0953 20.932 26.2175 20.8018 26.3674 20.7109C26.5173 20.6201 26.6893 20.572 26.8646 20.572C27.0399 20.572 27.2118 20.6201 27.3617 20.7109C27.5117 20.8018 27.6338 20.932 27.7149 21.0874V22.9389C27.7288 23.2955 27.8801 23.6328 28.1373 23.8802C28.3944 24.1276 28.7374 24.2657 29.0942 24.2657C29.451 24.2657 29.794 24.1276 30.0511 23.8802C30.3082 23.6328 30.4596 23.2955 30.4734 22.9389V16.5067C30.4596 16.1501 30.3082 15.8128 30.0511 15.5654C29.794 15.318 29.451 15.1799 29.0942 15.1799C28.7374 15.1799 28.3944 15.318 28.1373 15.5654C27.8801 15.8128 27.7288 16.1501 27.7149 16.5067V18.3101C27.7149 18.3101 27.4678 19.0955 26.8394 19.0955C26.2111 19.0955 26.0142 18.3101 26.0142 18.3101V10.8055C26.0142 10.4394 25.8688 10.0883 25.6099 9.82946C25.3511 9.57061 25 9.42519 24.6339 9.42519C24.2678 9.42519 23.9168 9.57061 23.6579 9.82946C23.3991 10.0883 23.2537 10.4394 23.2537 10.8055V20.9931C23.2537 20.9931 23.0065 21.7786 22.3781 21.7786C21.7498 21.7786 21.5508 20.9931 21.5508 20.9931V14.7809C21.5581 14.5953 21.5278 14.41 21.4618 14.2363C21.3958 14.0626 21.2953 13.9041 21.1666 13.7701C21.0378 13.6362 20.8833 13.5296 20.7123 13.4569C20.5413 13.3841 20.3574 13.3466 20.1716 13.3466C19.9858 13.3466 19.8019 13.3841 19.6309 13.4569C19.46 13.5296 19.3055 13.6362 19.1767 13.7701C19.0479 13.9041 18.9475 14.0626 18.8814 14.2363C18.8154 14.41 18.7851 14.5953 18.7924 14.7809V16.955C18.7924 16.955 18.5453 17.7403 17.9168 17.7403C17.2882 17.7403 17.0894 16.9549 17.0894 16.9549V5.40169C17.0966 5.21607 17.0663 5.03091 17.0002 4.8573C16.9341 4.68369 16.8337 4.5252 16.7049 4.39133C16.5761 4.25746 16.4216 4.15096 16.2507 4.07821C16.0798 4.00547 15.896 3.96797 15.7102 3.96797C15.5244 3.96797 15.3406 4.00547 15.1697 4.07821C14.9987 4.15096 14.8443 4.25746 14.7155 4.39133C14.5867 4.5252 14.4863 4.68369 14.4202 4.8573C14.3541 5.03091 14.3238 5.21607 14.331 5.40169V14.4897C14.331 14.4897 14.0838 15.2751 13.4555 15.2751C12.8271 15.2751 12.6302 14.4897 12.6302 14.4897V1.38027C12.6302 1.0142 12.4848 0.663123 12.2259 0.404272C11.9671 0.145421 11.616 0 11.2499 0C10.8839 0 10.5328 0.145421 10.2739 0.404272C10.0151 0.663123 9.86967 1.0142 9.86967 1.38027" fill="white"/>
</mask>
<g mask="url(#mask0_1803_41)">
<path d="M30.4776 0.00195312H0.962021V38.2369H30.4776V0.00195312Z" fill="#1500FF"/>
</g>
</svg>
